<?xml version="1.0" encoding="UTF-8" standalone="no"?>
<!-- Uploaded to: SVG Repo, www.svgrepo.com, Generator: SVG Repo Mixer Tools -->

<svg
   version="1.1"
   id="_x32_"
   viewBox="0 0 512 512"
   xml:space="preserve"
   sodipodi:docname="bonus-card.svg"
   inkscape:version="1.4 (e7c3feb100, 2024-10-09)"
   xmlns:inkscape="http://www.inkscape.org/namespaces/inkscape"
   xmlns:sodipodi="http://sodipodi.sourceforge.net/DTD/sodipodi-0.dtd"
   xmlns="http://www.w3.org/2000/svg"
   xmlns:svg="http://www.w3.org/2000/svg"><defs
   id="defs39" /><sodipodi:namedview
   id="namedview39"
   pagecolor="#735b55"
   bordercolor="#000000"
   borderopacity="0.25"
   inkscape:showpageshadow="2"
   inkscape:pageopacity="0.0"
   inkscape:pagecheckerboard="0"
   inkscape:deskcolor="#d1d1d1"
   inkscape:zoom="1.4726562"
   inkscape:cx="256"
   inkscape:cy="256"
   inkscape:window-width="1920"
   inkscape:window-height="1039"
   inkscape:window-x="0"
   inkscape:window-y="48"
   inkscape:window-maximized="1"
   inkscape:current-layer="g39" />
<style
   type="text/css"
   id="style1">
	.st0{fill:#000000;}
</style>
<g
   id="g39">
	<rect
   style="fill:#f9f9f9;fill-opacity:1;stroke:#735b55;stroke-width:0;stroke-dasharray:none"
   id="rect40"
   width="323.37793"
   height="478.2002"
   x="96.348175"
   y="16.899906"
   inkscape:label="card body" /><path
   class="st0"
   d="M388.916,0H123.084C97.093,0,75.952,21.149,75.952,47.141V464.86c0,25.992,21.141,47.14,47.133,47.14h265.831   c25.992,0,47.133-21.148,47.133-47.14V47.141C436.048,21.149,414.908,0,388.916,0z M415.1,464.86   c0,14.466-11.727,26.193-26.185,26.193H123.084c-14.458,0-26.185-11.727-26.185-26.193V47.141   c0-14.466,11.727-26.193,26.185-26.193h265.831c14.458,0,26.185,11.727,26.185,26.193V464.86z"
   id="path1"
   style="fill:#4c7074;fill-opacity:1" />
	<rect
   x="123.084"
   y="350.94"
   class="st0"
   width="37.976"
   height="37.968"
   id="rect1"
   style="fill:#8ab5b9;fill-opacity:1" />
	<rect
   x="199.036"
   y="350.94"
   class="st0"
   width="37.976"
   height="37.968"
   id="rect2"
   style="fill:#8ab5b9;fill-opacity:1" />
	<rect
   x="274.988"
   y="350.94"
   class="st0"
   width="37.975"
   height="37.968"
   id="rect3"
   style="fill:#8ab5b9;fill-opacity:1" />
	<rect
   x="350.94"
   y="350.94"
   class="st0"
   width="37.976"
   height="37.968"
   id="rect4"
   style="fill:#8ab5b9;fill-opacity:1" />
	<rect
   x="123.084"
   y="274.988"
   class="st0"
   width="37.976"
   height="37.976"
   id="rect5"
   style="fill:#8ab5b9;fill-opacity:1" />
	<rect
   x="199.036"
   y="274.988"
   class="st0"
   width="37.976"
   height="37.976"
   id="rect6"
   style="fill:#8ab5b9;fill-opacity:1" />
	<rect
   x="274.988"
   y="274.988"
   class="st0"
   width="37.975"
   height="37.976"
   id="rect7"
   style="fill:#8ab5b9;fill-opacity:1" />
	<rect
   x="350.94"
   y="274.988"
   class="st0"
   width="37.976"
   height="37.976"
   id="rect8"
   style="fill:#8ab5b9;fill-opacity:1" />
	<rect
   x="161.06"
   y="312.964"
   class="st0"
   width="37.976"
   height="37.976"
   id="rect9"
   style="fill:#8ab5b9;fill-opacity:1" />
	<rect
   x="237.012"
   y="312.964"
   class="st0"
   width="37.976"
   height="37.976"
   id="rect10"
   style="fill:#8ab5b9;fill-opacity:1" />
	<rect
   x="312.964"
   y="312.964"
   class="st0"
   width="37.976"
   height="37.976"
   id="rect11"
   style="fill:#8ab5b9;fill-opacity:1" />
	<rect
   x="161.06"
   y="388.908"
   class="st0"
   width="37.976"
   height="37.976"
   id="rect12"
   style="fill:#8ab5b9;fill-opacity:1" />
	<rect
   x="237.012"
   y="388.908"
   class="st0"
   width="37.976"
   height="37.976"
   id="rect13"
   style="fill:#8ab5b9;fill-opacity:1" />
	<rect
   x="312.964"
   y="388.908"
   class="st0"
   width="37.976"
   height="37.976"
   id="rect14"
   style="fill:#8ab5b9;fill-opacity:1" />
	<rect
   x="123.084"
   y="426.884"
   class="st0"
   width="37.976"
   height="37.976"
   id="rect15"
   style="fill:#8ab5b9;fill-opacity:1" />
	<rect
   x="199.036"
   y="426.884"
   class="st0"
   width="37.976"
   height="37.976"
   id="rect16"
   style="fill:#8ab5b9;fill-opacity:1" />
	<rect
   x="274.988"
   y="426.884"
   class="st0"
   width="37.975"
   height="37.976"
   id="rect17"
   style="fill:#8ab5b9;fill-opacity:1" />
	<rect
   x="350.94"
   y="426.884"
   class="st0"
   width="37.976"
   height="37.976"
   id="rect18"
   style="fill:#8ab5b9;fill-opacity:1" />
	<rect
   x="123.084"
   y="199.037"
   class="st0"
   width="37.976"
   height="37.976"
   id="rect19"
   style="fill:#8ab5b9;fill-opacity:1" />
	<rect
   x="199.036"
   y="199.037"
   class="st0"
   width="37.976"
   height="37.976"
   id="rect20"
   style="fill:#8ab5b9;fill-opacity:1" />
	<rect
   x="274.988"
   y="199.037"
   class="st0"
   width="37.975"
   height="37.976"
   id="rect21"
   style="fill:#8ab5b9;fill-opacity:1" />
	<rect
   x="350.94"
   y="199.037"
   class="st0"
   width="37.976"
   height="37.976"
   id="rect22"
   style="fill:#8ab5b9;fill-opacity:1" />
	<rect
   x="161.06"
   y="237.013"
   class="st0"
   width="37.976"
   height="37.975"
   id="rect23"
   style="fill:#8ab5b9;fill-opacity:1" />
	<rect
   x="237.012"
   y="237.013"
   class="st0"
   width="37.976"
   height="37.975"
   id="rect24"
   style="fill:#8ab5b9;fill-opacity:1" />
	<rect
   x="312.964"
   y="237.013"
   class="st0"
   width="37.976"
   height="37.975"
   id="rect25"
   style="fill:#8ab5b9;fill-opacity:1" />
	<rect
   x="123.084"
   y="123.093"
   class="st0"
   width="37.976"
   height="37.968"
   id="rect26"
   style="fill:#8ab5b9;fill-opacity:1" />
	<rect
   x="199.036"
   y="123.093"
   class="st0"
   width="37.976"
   height="37.968"
   id="rect27"
   style="fill:#8ab5b9;fill-opacity:1" />
	<rect
   x="274.988"
   y="123.093"
   class="st0"
   width="37.975"
   height="37.968"
   id="rect28"
   style="fill:#8ab5b9;fill-opacity:1" />
	<rect
   x="350.94"
   y="123.093"
   class="st0"
   width="37.976"
   height="37.968"
   id="rect29"
   style="fill:#8ab5b9;fill-opacity:1" />
	<rect
   x="161.06"
   y="161.061"
   class="st0"
   width="37.976"
   height="37.976"
   id="rect30"
   style="fill:#8ab5b9;fill-opacity:1" />
	<rect
   x="237.012"
   y="161.061"
   class="st0"
   width="37.976"
   height="37.976"
   id="rect31"
   style="fill:#8ab5b9;fill-opacity:1" />
	<rect
   x="312.964"
   y="161.061"
   class="st0"
   width="37.976"
   height="37.976"
   id="rect32"
   style="fill:#8ab5b9;fill-opacity:1" />
	<rect
   x="123.084"
   y="47.141"
   class="st0"
   width="37.976"
   height="37.976"
   id="rect33"
   style="fill:#8ab5b9;fill-opacity:1" />
	<rect
   x="199.036"
   y="47.141"
   class="st0"
   width="37.976"
   height="37.976"
   id="rect34"
   style="fill:#8ab5b9;fill-opacity:1" />
	<rect
   x="274.988"
   y="47.141"
   class="st0"
   width="37.975"
   height="37.976"
   id="rect35"
   style="fill:#8ab5b9;fill-opacity:1" />
	<rect
   x="350.94"
   y="47.141"
   class="st0"
   width="37.976"
   height="37.976"
   id="rect36"
   style="fill:#8ab5b9;fill-opacity:1" />
	<rect
   x="161.06"
   y="85.117"
   class="st0"
   width="37.976"
   height="37.976"
   id="rect37"
   style="fill:#8ab5b9;fill-opacity:1" />
	<rect
   x="237.012"
   y="85.117"
   class="st0"
   width="37.976"
   height="37.976"
   id="rect38"
   style="fill:#8ab5b9;fill-opacity:1" />
	<rect
   x="312.964"
   y="85.117"
   class="st0"
   width="37.976"
   height="37.976"
   id="rect39"
   style="fill:#8ab5b9;fill-opacity:1" />
</g>
</svg>
