<?xml version="1.0" encoding="UTF-8" standalone="no"?>
<!-- Uploaded to: SVG Repo, www.svgrepo.com, Generator: SVG Repo Mixer Tools -->

<svg
   height="800px"
   width="800px"
   version="1.1"
   id="_x32_"
   viewBox="0 0 512 512"
   xml:space="preserve"
   sodipodi:docname="fish.svg"
   inkscape:version="1.4 (e7c3feb100, 2024-10-09)"
   xmlns:inkscape="http://www.inkscape.org/namespaces/inkscape"
   xmlns:sodipodi="http://sodipodi.sourceforge.net/DTD/sodipodi-0.dtd"
   xmlns="http://www.w3.org/2000/svg"
   xmlns:svg="http://www.w3.org/2000/svg"><defs
   id="defs1" /><sodipodi:namedview
   id="namedview1"
   pagecolor="#ffffff"
   bordercolor="#000000"
   borderopacity="0.25"
   inkscape:showpageshadow="2"
   inkscape:pageopacity="0.0"
   inkscape:pagecheckerboard="0"
   inkscape:deskcolor="#d1d1d1"
   inkscape:zoom="0.9425"
   inkscape:cx="400"
   inkscape:cy="400"
   inkscape:window-width="1920"
   inkscape:window-height="1039"
   inkscape:window-x="0"
   inkscape:window-y="48"
   inkscape:window-maximized="1"
   inkscape:current-layer="_x32_" />
<style
   type="text/css"
   id="style1">
	.st0{fill:#000000;}
</style>
<g
   id="g1"
   style="fill:#1e77b3;fill-opacity:1">
	<path
   class="st0"
   d="M508.727,159.883c-14.908-8.942-74.31,45.732-91.456,68.595c-57.163-34.302-108.602-57.164-108.602-57.164   s22.862-100.025-8.578-94.318c-28.638,5.212-81.664,42.558-125.749,77.172C100.033,174.176,10.164,225.086,0,274.201   c28.577,94.318,191.489,140.042,288.66,160.05c47.831,9.852,20.009-57.155,20.009-57.155s51.439-22.87,108.602-57.163   c17.147,22.862,76.548,77.536,91.456,68.594c14.293-8.577-22.862-114.326-22.862-114.326S523.02,168.461,508.727,159.883z    M101.69,279.265c-13.027,0-23.582-10.555-23.582-23.582c0-13.018,10.555-23.573,23.582-23.573   c13.018,0,23.573,10.555,23.573,23.573C125.263,268.71,114.708,279.265,101.69,279.265z"
   id="path1"
   style="fill:#1e77b3;fill-opacity:1" />
</g>
</svg>
