<?xml version="1.0" encoding="UTF-8" standalone="no"?>
<!-- Uploaded to: SVG Repo, www.svgrepo.com, Generator: SVG Repo Mixer Tools -->

<svg
   version="1.1"
   id="_x32_"
   width="800px"
   height="800px"
   viewBox="0 0 512 512"
   xml:space="preserve"
   sodipodi:docname="fruit.svg"
   inkscape:version="1.4 (e7c3feb100, 2024-10-09)"
   xmlns:inkscape="http://www.inkscape.org/namespaces/inkscape"
   xmlns:sodipodi="http://sodipodi.sourceforge.net/DTD/sodipodi-0.dtd"
   xmlns="http://www.w3.org/2000/svg"
   xmlns:svg="http://www.w3.org/2000/svg"><defs
   id="defs1" /><sodipodi:namedview
   id="namedview1"
   pagecolor="#ffffff"
   bordercolor="#000000"
   borderopacity="0.25"
   inkscape:showpageshadow="2"
   inkscape:pageopacity="0.0"
   inkscape:pagecheckerboard="0"
   inkscape:deskcolor="#d1d1d1"
   inkscape:zoom="0.66644814"
   inkscape:cx="388.62739"
   inkscape:cy="405.1328"
   inkscape:window-width="1920"
   inkscape:window-height="1039"
   inkscape:window-x="0"
   inkscape:window-y="48"
   inkscape:window-maximized="1"
   inkscape:current-layer="g1" />
<style
   type="text/css"
   id="style1">
<![CDATA[
	.st0{fill:#000000;}
]]>
</style>
<g
   id="g1">
	<path
   class="st0"
   d="M 414.281,318.906 C 420.125,229.843 399.25,121.859 358.5,18.406 354.578,4.594 351.781,1.797 350.781,0 L 315.64,8.781 c 3.203,5.781 10.87234,18.937601 11,49.188 -15.23737,39.853547 -127.99258,138.04201 -167.28366,159.86322 -49.43436,27.45452 -31.18662,42.07371 18.43374,19.45586 56.63551,-25.81547 109.80927,-87.592 146.53745,-122.35185 -12.15417,47.13531 -54.3877,163.7076 -104.35212,212.24647 -17.719,-15.219 -40.734,-24.469 -65.938,-24.469 -55.969003,0 -101.344003,45.375 -101.344003,101.344 0,56 45.375,101.375 101.344003,101.375 55.969,0 101.359,-45.375 101.359,-101.375 0,-18.688 -5.156,-36.156 -13.984,-51.188 51.75,-54.172 89.21159,-160.4947 110.19659,-240.1817 23.188,72.25 32.094,138.063 26.578,196.938 -2.25,-0.156 -4.5,-0.344 -6.781,-0.344 -55.969,0 -101.359,45.375 -101.359,101.359 0,55.984 45.391,101.359 101.359,101.359 55.968,0 101.344,-45.375 101.344,-101.359 0,-40.625 -23.937,-75.563 -58.469,-91.735 z"
   id="path1"
   sodipodi:nodetypes="cccccssccsssscccssssc"
   style="fill:#ac1e26;fill-opacity:1" /><circle
   style="fill:#ac1e26;fill-opacity:1;stroke-width:0.64"
   id="path2"
   cx="118.59888"
   cy="218.4716"
   r="83.06723" />
</g>
</svg>
