<?xml version="1.0" encoding="UTF-8" standalone="no"?>
<!-- Uploaded to: SVG Repo, www.svgrepo.com, Generator: SVG Repo Mixer Tools -->

<svg
   fill="#000000"
   version="1.1"
   id="Capa_1"
   width="800px"
   height="800px"
   viewBox="0 0 582.071 582.07"
   xml:space="preserve"
   sodipodi:docname="invertebrate.svg"
   inkscape:version="1.4 (e7c3feb100, 2024-10-09)"
   xmlns:inkscape="http://www.inkscape.org/namespaces/inkscape"
   xmlns:sodipodi="http://sodipodi.sourceforge.net/DTD/sodipodi-0.dtd"
   xmlns="http://www.w3.org/2000/svg"
   xmlns:svg="http://www.w3.org/2000/svg"><defs
   id="defs2" /><sodipodi:namedview
   id="namedview2"
   pagecolor="#ffffff"
   bordercolor="#000000"
   borderopacity="0.25"
   inkscape:showpageshadow="2"
   inkscape:pageopacity="0.0"
   inkscape:pagecheckerboard="0"
   inkscape:deskcolor="#d1d1d1"
   inkscape:zoom="0.9425"
   inkscape:cx="400.5305"
   inkscape:cy="444.56233"
   inkscape:window-width="1920"
   inkscape:window-height="1039"
   inkscape:window-x="0"
   inkscape:window-y="48"
   inkscape:window-maximized="1"
   inkscape:current-layer="Capa_1" />
<g
   id="g2"
   style="fill:#25473d;fill-opacity:1"
   transform="matrix(0.91803685,0.70122845,-0.70122845,0.91803685,242.67829,-191.70636)">
	<g
   id="g1"
   style="fill:#25473d;fill-opacity:1">
		<path
   d="m 68.29,334.807 c -3.333,2.085 -7.026,3.578 -10.441,5.545 -1.35,0.779 -3.121,2.08 -3.284,3.329 -0.167,1.261 1.122,3.439 2.321,3.962 1.359,0.591 3.46,0.126 4.99,-0.486 2.138,-0.86 4.015,-2.342 6.055,-3.459 4.696,-2.571 8.743,-2.987 13.382,1.175 2.872,2.574 7.577,3.243 11.567,4.398 4.524,1.31 9.123,2.484 13.766,3.219 11.44,1.812 23.028,2.827 34.358,5.133 9.539,1.938 19.041,-0.028 28.519,1.105 2.452,0.294 5.108,-1.208 7.589,-0.983 7.593,0.682 14.606,-1.281 21.917,-2.974 10.331,-2.392 20.351,-5.084 29.654,-10.245 5.051,-2.803 10.648,-3.016 16.267,-2.986 7.491,0.036 14.99,-0.103 22.477,0.077 5.676,0.135 11.347,0.955 17.014,0.91 5.545,-0.045 11.11,-0.596 16.618,-1.285 7.446,-0.931 14.847,-3.048 22.269,-3.048 5.81,0 12.044,-1.225 17.675,1.758 0.273,0.147 0.611,0.204 0.926,0.245 8.405,1.073 16.789,2.313 25.223,3.104 2.885,0.27 5.875,-0.583 8.812,-0.93 0.318,-0.037 0.625,-0.167 0.942,-0.192 6.602,-0.481 13.224,-0.808 19.809,-1.473 7.021,-0.71 14.011,-1.754 21.017,-2.627 1.272,-0.159 2.591,-0.408 3.839,-0.241 5.618,0.751 11.2,1.812 16.834,2.436 8.829,0.979 17.688,1.751 26.541,2.518 8.327,0.718 16.666,1.877 24.994,1.828 10.894,-0.069 19.498,6.687 29.563,8.768 5.712,1.184 11.579,1.632 17.368,2.432 5.19,0.723 10.38,1.416 15.558,2.224 7.915,1.232 15.834,1.89 23.619,-0.53 5.932,-1.844 7.649,-6.548 4.41,-11.897 -1.204,-1.986 -2.742,-3.937 -4.554,-5.356 -5.014,-3.925 -10.253,-7.564 -15.405,-11.314 -0.694,-0.506 -1.42,-0.967 -2.094,-1.501 -10.53,-8.401 -20.881,-17.034 -31.648,-25.112 -5.193,-3.896 -8.735,-9.47 -14.247,-12.914 -159.847,-99.854 -335.756,-12.011 -335.756,-12.011 -4.162,1.33 -8.087,3.435 -12.044,5.353 -6.267,3.032 -12.758,5.198 -19.788,5.006 -8.131,-0.225 -16.254,-0.689 -24.382,-1.053 -1.285,-0.057 -2.644,-0.461 -3.835,-0.159 -4.998,1.265 -8.809,-0.979 -12.354,-3.958 -16.61,-13.941 -33.175,-27.944 -49.792,-41.881 -3.427,-2.872 -5.814,-6.059 -6.01,-10.844 -0.167,-4.011 -2.766,-6.341 -6.483,-6.892 -2.791,-0.412 -6.475,1.559 -7.797,4.178 -1.473,2.921 -1.016,8.205 1.126,10.016 1.003,0.849 2.529,1.053 3.729,1.706 1.542,0.84 3.337,1.542 4.435,2.815 9.196,10.645 18.18,21.473 27.389,32.109 6.034,6.969 12.338,13.709 18.507,20.567 0.416,0.466 0.702,1.041 0.938,1.404 -1.934,1.986 -3.647,3.545 -5.116,5.312 -1.326,1.592 -2.778,1.95 -4.537,1.045 -3.717,-1.914 -7.569,-3.627 -11.078,-5.879 -16.989,-10.906 -33.896,-21.931 -50.775,-33.008 -1.358,-0.894 -2.432,-2.366 -3.337,-3.766 -2.272,-3.525 -6.536,-5.145 -10.314,-3.721 -3.814,1.44 -5.704,4.77 -5.132,9 0.416,3.097 2.289,4.925 5.259,5.214 4.052,0.396 7.299,2.293 10.42,4.651 13.705,10.363 27.467,20.649 41.118,31.085 4.672,3.57 9.253,7.299 13.538,11.313 3.17,2.975 2.677,3.852 -1.277,5.513 -3.737,1.57 -7.365,3.419 -10.935,5.345 -0.755,0.403 -1.498,1.705 -1.424,2.525 0.073,0.824 1.102,2.126 1.828,2.211 1.604,0.184 3.342,-0.053 4.917,-0.506 2.179,-0.628 4.251,-1.607 6.369,-2.439 0.342,0.363 0.685,0.73 1.028,1.093 -0.861,1.37 -1.407,3.263 -2.655,4.043 z"
   id="path1"
   style="fill:#25473d;fill-opacity:1" />
	</g>
</g>
</svg>
