<?xml version="1.0" encoding="UTF-8" standalone="no"?>
<!-- Uploaded to: SVG Repo, www.svgrepo.com, Generator: SVG Repo Mixer Tools -->

<svg
   fill="#000000"
   height="1000"
   width="1000"
   version="1.1"
   id="Layer_1"
   viewBox="0 0 639.99875 639.99875"
   xml:space="preserve"
   sodipodi:docname="nest-cavity.svg"
   inkscape:version="1.4 (e7c3feb100, 2024-10-09)"
   xmlns:inkscape="http://www.inkscape.org/namespaces/inkscape"
   xmlns:sodipodi="http://sodipodi.sourceforge.net/DTD/sodipodi-0.dtd"
   xmlns="http://www.w3.org/2000/svg"
   xmlns:svg="http://www.w3.org/2000/svg"><defs
   id="defs8" /><sodipodi:namedview
   id="namedview8"
   pagecolor="#735b55"
   bordercolor="#000000"
   borderopacity="0.25"
   inkscape:showpageshadow="2"
   inkscape:pageopacity="0.0"
   inkscape:pagecheckerboard="0"
   inkscape:deskcolor="#d1d1d1"
   inkscape:zoom="0.66644814"
   inkscape:cx="384.87616"
   inkscape:cy="540.17706"
   inkscape:window-width="1920"
   inkscape:window-height="1039"
   inkscape:window-x="0"
   inkscape:window-y="48"
   inkscape:window-maximized="1"
   inkscape:current-layer="g1" />
<g
   id="g2"
   transform="translate(63.999937,64.000375)">
	<g
   id="g1">
		<path
   id="path1"
   style="fill:#f9f9f9"
   d="m 96.768499,-16.595468 c -4.179157,-0.340434 -7.589985,3.396986 -7.589985,7.5899856 V 289.02394 L 11.518666,249.24526 c -2.3500005,-1.205 -5.162736,-1.0995 -7.418736,0.2775 -2.256,1.379 -3.63124292,3.83224 -3.63124292,6.47624 v 78.1636 c 0,2.622 1.35424302,5.05873 3.58124302,6.44373 l 85.1285839,52.9699 v 127.47205 c 0,4.193 3.396985,7.58999 7.589985,7.58999 0,0 100.766211,-10.45715 151.333261,-10.56344 53.80809,-0.1131 161.07863,10.56344 161.07863,10.56344 4.18401,0.27439 7.59123,-3.39699 7.59123,-7.58999 V 196.84787 l 23.41746,-23.41746 0.005,-0.005 69.11236,-69.11111 c 2.965,-2.965 2.964,-7.769733 0,-10.733733 L 457.0803,41.351919 c -2.811,-2.809 -7.31473,-2.974499 -10.32373,-0.382499 L 416.77162,66.821869 V -9.0054824 c 0,-4.1929996 -3.39698,-7.5899856 -7.58998,-7.5899856 0,0 -106.92438,10.6418795 -159.15926,10.563442 C 197.7875,-6.1104636 96.768499,-16.595468 96.768499,-16.595468 Z M 255.99944,126.83675 c 38.18633,1.8e-4 69.14241,57.82806 69.14236,129.16225 5e-5,71.33419 -30.95603,129.16207 -69.14236,129.16225 -38.18634,-1.7e-4 -69.14242,-57.82805 -69.14237,-129.16225 -5e-5,-71.3342 30.95603,-129.16208 69.14237,-129.16225 z"
   sodipodi:nodetypes="sscccssccsssssccccccccsssscsccc" />
	</g>
</g>

<g
   id="g6"
   transform="translate(63.999937,64.000375)">
	<g
   id="g5">
		
	</g>
</g>
<g
   id="g8"
   transform="translate(63.999937,64.000375)">
	<g
   id="g7">
		
	</g>
</g>
</svg>
