<?xml version="1.0" encoding="UTF-8" standalone="no"?>
<!-- Uploaded to: SVG Repo, www.svgrepo.com, Generator: SVG Repo Mixer Tools -->

<svg
   fill="#000000"
   width="800px"
   height="800px"
   viewBox="0 0 20 20"
   version="1.1"
   id="svg1"
   sodipodi:docname="nest-bowl.svg"
   inkscape:version="1.4 (e7c3feb100, 2024-10-09)"
   xmlns:inkscape="http://www.inkscape.org/namespaces/inkscape"
   xmlns:sodipodi="http://sodipodi.sourceforge.net/DTD/sodipodi-0.dtd"
   xmlns="http://www.w3.org/2000/svg"
   xmlns:svg="http://www.w3.org/2000/svg">
  <defs
     id="defs1" />
  <sodipodi:namedview
     id="namedview1"
     pagecolor="#735b55"
     bordercolor="#000000"
     borderopacity="0.25"
     inkscape:showpageshadow="2"
     inkscape:pageopacity="0.0"
     inkscape:pagecheckerboard="0"
     inkscape:deskcolor="#d1d1d1"
     inkscape:zoom="0.9425"
     inkscape:cx="400.5305"
     inkscape:cy="400"
     inkscape:window-width="1920"
     inkscape:window-height="1039"
     inkscape:window-x="0"
     inkscape:window-y="48"
     inkscape:window-maximized="1"
     inkscape:current-layer="svg1" />
  <path
     id="path1"
     style="fill:#f9f9f9"
     d="M 9.7296387 3.0829102 C 6.7634421 3.0829102 2.2089844 4.0151159 2.2089844 5.9681152 L 2.2089844 7.9681152 C 2.2089844 8.8861154 2.7910156 16.91709 9.7910156 16.91709 C 16.791016 16.91709 17.791016 8.8861153 17.791016 7.9681152 L 17.791016 5.9681152 C 17.791016 4.2886907 13.128448 3.0829103 9.7296387 3.0829102 z M 10 4.3156738 A 6.061008 1.6445624 0 0 1 16.060986 5.9602051 A 6.061008 1.6445624 0 0 1 10 7.6047852 A 6.061008 1.6445624 0 0 1 3.9390137 5.9602051 A 6.061008 1.6445624 0 0 1 10 4.3156738 z " />
</svg>
