<?xml version="1.0" encoding="UTF-8" standalone="no"?>
<!-- Uploaded to: SVG Repo, www.svgrepo.com, Generator: SVG Repo Mixer Tools -->

<svg
   height="800px"
   width="800px"
   version="1.1"
   id="Layer_1"
   viewBox="0 0 504.129 504.129"
   xml:space="preserve"
   sodipodi:docname="wingspan-under-50cm.svg"
   inkscape:version="1.4 (e7c3feb100, 2024-10-09)"
   xmlns:inkscape="http://www.inkscape.org/namespaces/inkscape"
   xmlns:sodipodi="http://sodipodi.sourceforge.net/DTD/sodipodi-0.dtd"
   xmlns="http://www.w3.org/2000/svg"
   xmlns:svg="http://www.w3.org/2000/svg"><defs
   id="defs84" /><sodipodi:namedview
   id="namedview84"
   pagecolor="#ffffff"
   bordercolor="#000000"
   borderopacity="0.25"
   inkscape:showpageshadow="2"
   inkscape:pageopacity="0.0"
   inkscape:pagecheckerboard="0"
   inkscape:deskcolor="#d1d1d1"
   inkscape:zoom="0.9425"
   inkscape:cx="400.5305"
   inkscape:cy="400"
   inkscape:window-width="1920"
   inkscape:window-height="1039"
   inkscape:window-x="0"
   inkscape:window-y="48"
   inkscape:window-maximized="1"
   inkscape:current-layer="Layer_1" />
<linearGradient
   id="SVGID_1_"
   gradientUnits="userSpaceOnUse"
   x1="8.0837"
   y1="604.046"
   x2="-14.8483"
   y2="582.502"
   gradientTransform="matrix(7.8769 0 0 -7.8769 364.0319 4969.6978)">
	<stop
   offset="0"
   style="stop-color:#29D3DA"
   id="stop1" />
	<stop
   offset="0.519"
   style="stop-color:#0077FF"
   id="stop2" />
	<stop
   offset="0.999"
   style="stop-color:#064093"
   id="stop3" />
	<stop
   offset="1"
   style="stop-color:#084698"
   id="stop4" />
</linearGradient>
<path
   style="fill:#735b55;fill-opacity:1;stroke-width:1.00007;stroke-dasharray:none"
   d="m 252.1355,458.92231 c 0,0 -7.806,-83.803 84.85,-112.427 92.656,-28.633 89.009,-55.186 89.009,-55.186 0,0 16.715,65.599 -50.979,78.045 -121.801,22.386 -122.88,89.568 -122.88,89.568 z"
   id="path4" />
<linearGradient
   id="SVGID_2_"
   gradientUnits="userSpaceOnUse"
   x1="-18.5143"
   y1="577.098"
   x2="9.3157"
   y2="604.982"
   gradientTransform="matrix(7.8769 0 0 -7.8769 364.0319 4969.6978)">
	<stop
   offset="0"
   style="stop-color:#29D3DA"
   id="stop5" />
	<stop
   offset="0.519"
   style="stop-color:#0077FF"
   id="stop6" />
	<stop
   offset="0.999"
   style="stop-color:#064093"
   id="stop7" />
	<stop
   offset="1"
   style="stop-color:#084698"
   id="stop8" />
</linearGradient>
<path
   style="fill:#735b55;fill-opacity:1;stroke-width:1.00007;stroke-dasharray:none"
   d="m 427.8065,307.55231 c -1.686,7.428 -13.344,29.814 -90.411,53.618 -65.032,20.11 -81.479,66.875 -85.417,94.035 0.032,2.402 0.158,3.726 0.158,3.726 0,0 1.079,-67.182 122.888,-89.569 46.047,-8.468 53.026,-41.519 52.782,-61.81 z"
   id="path8" />
<linearGradient
   id="SVGID_3_"
   gradientUnits="userSpaceOnUse"
   x1="3.031"
   y1="598.4557"
   x2="-14.705"
   y2="581.7897"
   gradientTransform="matrix(7.8769 0 0 -7.8769 364.0319 4969.6978)">
	<stop
   offset="0"
   style="stop-color:#29D3DA"
   id="stop9" />
	<stop
   offset="0.519"
   style="stop-color:#0077FF"
   id="stop10" />
	<stop
   offset="0.999"
   style="stop-color:#064093"
   id="stop11" />
	<stop
   offset="1"
   style="stop-color:#084698"
   id="stop12" />
</linearGradient>
<path
   style="fill:#735b55;fill-opacity:1;stroke-width:1.00007;stroke-dasharray:none"
   d="m 252.0955,464.55431 c 0,0 -6.049,-64.827 65.631,-86.985 71.68,-22.142 68.868,-42.677 68.868,-42.677 0,0 12.918,50.735 -39.44,60.353 -94.216,17.322 -95.059,69.309 -95.059,69.309 z"
   id="path12" />
<linearGradient
   id="SVGID_4_"
   gradientUnits="userSpaceOnUse"
   x1="-17.5438"
   y1="577.6055"
   x2="3.9812"
   y2="599.1775"
   gradientTransform="matrix(7.8769 0 0 -7.8769 364.0319 4969.6978)">
	<stop
   offset="0"
   style="stop-color:#29D3DA"
   id="stop13" />
	<stop
   offset="0.519"
   style="stop-color:#0077FF"
   id="stop14" />
	<stop
   offset="0.999"
   style="stop-color:#064093"
   id="stop15" />
	<stop
   offset="1"
   style="stop-color:#084698"
   id="stop16" />
</linearGradient>
<path
   style="fill:#735b55;fill-opacity:1;stroke-width:1.00007;stroke-dasharray:none"
   d="m 387.9885,347.46431 c -1.308,5.742 -10.327,23.048 -69.939,41.464 -50.31,15.557 -63.023,51.736 -66.079,72.736 0.024,1.843 0.126,2.891 0.126,2.891 0,0 0.843,-51.988 95.059,-69.309 35.618,-6.538 41.022,-32.107 40.833,-47.782 z"
   id="path16" />
<linearGradient
   id="SVGID_5_"
   gradientUnits="userSpaceOnUse"
   x1="-1.1787"
   y1="594.0173"
   x2="-14.5937"
   y2="581.4174"
   gradientTransform="matrix(7.8769 0 0 -7.8769 364.0319 4969.6978)">
	<stop
   offset="0"
   style="stop-color:#29D3DA"
   id="stop17" />
	<stop
   offset="0.519"
   style="stop-color:#0077FF"
   id="stop18" />
	<stop
   offset="0.999"
   style="stop-color:#064093"
   id="stop19" />
	<stop
   offset="1"
   style="stop-color:#084698"
   id="stop20" />
</linearGradient>
<path
   style="fill:#735b55;fill-opacity:1;stroke-width:1.00007;stroke-dasharray:none"
   d="m 252.0485,467.47731 c 0,0 -4.553,-49.018 49.632,-65.772 54.193,-16.738 52.066,-32.264 52.066,-32.264 0,0 9.775,38.353 -29.814,45.631 -71.238,13.099 -71.884,52.405 -71.884,52.405 z"
   id="path20" />
<linearGradient
   id="SVGID_6_"
   gradientUnits="userSpaceOnUse"
   x1="-16.7326"
   y1="578.2563"
   x2="-0.4626"
   y2="594.5623"
   gradientTransform="matrix(7.8769 0 0 -7.8769 364.0319 4969.6978)">
	<stop
   offset="0"
   style="stop-color:#29D3DA"
   id="stop21" />
	<stop
   offset="0.519"
   style="stop-color:#0077FF"
   id="stop22" />
	<stop
   offset="0.999"
   style="stop-color:#064093"
   id="stop23" />
	<stop
   offset="1"
   style="stop-color:#084698"
   id="stop24" />
</linearGradient>
<path
   style="fill:#735b55;fill-opacity:1;stroke-width:1.00007;stroke-dasharray:none"
   d="m 354.8105,378.95631 c -1,4.34 -7.806,17.432 -52.886,31.35 -38.03,11.752 -47.648,39.109 -49.955,54.981 0.016,1.402 0.079,2.182 0.079,2.182 0,0 0.646,-39.306 71.885,-52.397 26.931,-4.931 31.019,-24.269 30.877,-36.116 z"
   id="path24" />
<linearGradient
   id="SVGID_7_"
   gradientUnits="userSpaceOnUse"
   x1="17.7645"
   y1="616.7982"
   x2="-15.1215"
   y2="585.9042"
   gradientTransform="matrix(7.8769 0 0 -7.8769 364.0319 4969.6978)">
	<stop
   offset="0.012"
   style="stop-color:#E0B386"
   id="stop25" />
	<stop
   offset="0.519"
   style="stop-color:#DA498C"
   id="stop26" />
	<stop
   offset="1"
   style="stop-color:#961484"
   id="stop27" />
</linearGradient>
<path
   style="fill:#735b55;fill-opacity:1;stroke-width:1.00007;stroke-dasharray:none"
   d="m 252.1905,432.12531 c 0,0 -11.177,-120.186 121.675,-161.249 132.86,-41.031 127.646,-79.108 127.646,-79.108 0,0 23.962,94.058 -73.09,111.892 -174.672,32.107 -176.231,128.465 -176.231,128.465 z"
   id="path27" />
<linearGradient
   id="SVGID_8_"
   gradientUnits="userSpaceOnUse"
   x1="-20.3728"
   y1="578.1495"
   x2="19.5242"
   y2="618.1415"
   gradientTransform="matrix(7.8769 0 0 -7.8769 364.0319 4969.6978)">
	<stop
   offset="0.012"
   style="stop-color:#E0B386"
   id="stop28" />
	<stop
   offset="0.519"
   style="stop-color:#DA498C"
   id="stop29" />
	<stop
   offset="1"
   style="stop-color:#961484"
   id="stop30" />
</linearGradient>
<path
   style="fill:#735b55;fill-opacity:1;stroke-width:1.00007;stroke-dasharray:none"
   d="m 504.1025,215.07731 c -2.418,10.634 -19.149,42.74 -129.638,76.879 -93.255,28.814 -116.831,95.878 -122.486,134.814 0.047,3.434 0.205,5.356 0.205,5.356 0,0 1.56,-96.351 176.23,-128.465 66.024,-12.123 76.035,-59.527 75.689,-88.584 z"
   id="path30" />
<linearGradient
   id="SVGID_9_"
   gradientUnits="userSpaceOnUse"
   x1="10.5164"
   y1="608.7792"
   x2="-14.9156"
   y2="584.8822"
   gradientTransform="matrix(7.8769 0 0 -7.8769 364.0319 4969.6978)">
	<stop
   offset="0.012"
   style="stop-color:#E0B386"
   id="stop31" />
	<stop
   offset="0.519"
   style="stop-color:#DA498C"
   id="stop32" />
	<stop
   offset="1"
   style="stop-color:#961484"
   id="stop33" />
</linearGradient>
<path
   style="fill:#735b55;fill-opacity:1;stroke-width:1.00007;stroke-dasharray:none"
   d="m 252.1505,440.16731 c 0,0 -8.665,-92.956 94.113,-124.723 102.778,-31.736 98.737,-61.204 98.737,-61.204 0,0 18.534,72.767 -56.541,86.567 -135.103,24.821 -136.309,99.36 -136.309,99.36 z"
   id="path33" />
<linearGradient
   id="SVGID_10_"
   gradientUnits="userSpaceOnUse"
   x1="-18.9788"
   y1="578.8885"
   x2="11.8852"
   y2="609.8195"
   gradientTransform="matrix(7.8769 0 0 -7.8769 364.0319 4969.6978)">
	<stop
   offset="0.012"
   style="stop-color:#E0B386"
   id="stop34" />
	<stop
   offset="0.519"
   style="stop-color:#DA498C"
   id="stop35" />
	<stop
   offset="1"
   style="stop-color:#961484"
   id="stop36" />
</linearGradient>
<path
   style="fill:#735b55;fill-opacity:1;stroke-width:1.00007;stroke-dasharray:none"
   d="m 447.0105,272.27931 c -1.867,8.231 -14.809,33.059 -100.281,59.463 -72.121,22.292 -90.38,74.185 -94.744,104.29 0.032,2.647 0.165,4.135 0.165,4.135 0,0 1.205,-74.539 136.318,-99.352 51.059,-9.388 58.81,-46.048 58.542,-68.536 z"
   id="path36" />
<linearGradient
   id="SVGID_11_"
   gradientUnits="userSpaceOnUse"
   x1="4.4844"
   y1="602.4193"
   x2="-14.7506"
   y2="584.3493"
   gradientTransform="matrix(7.8769 0 0 -7.8769 364.0319 4969.6978)">
	<stop
   offset="0.012"
   style="stop-color:#E0B386"
   id="stop37" />
	<stop
   offset="0.519"
   style="stop-color:#DA498C"
   id="stop38" />
	<stop
   offset="1"
   style="stop-color:#961484"
   id="stop39" />
</linearGradient>
<path
   style="fill:#735b55;fill-opacity:1;stroke-width:1.00007;stroke-dasharray:none"
   d="m 252.0955,444.36631 c 0,0 -6.53,-70.278 71.152,-94.295 77.706,-24.017 74.665,-46.277 74.665,-46.277 0,0 14.013,55.012 -42.748,65.449 -102.163,18.771 -103.069,75.123 -103.069,75.123 z"
   id="path39" />
<linearGradient
   id="SVGID_12_"
   gradientUnits="userSpaceOnUse"
   x1="-17.8231"
   y1="579.8177"
   x2="5.5129"
   y2="603.2007"
   gradientTransform="matrix(7.8769 0 0 -7.8769 364.0319 4969.6978)">
	<stop
   offset="0.012"
   style="stop-color:#E0B386"
   id="stop40" />
	<stop
   offset="0.519"
   style="stop-color:#DA498C"
   id="stop41" />
	<stop
   offset="1"
   style="stop-color:#961484"
   id="stop42" />
</linearGradient>
<path
   style="fill:#735b55;fill-opacity:1;stroke-width:1.00007;stroke-dasharray:none"
   d="m 399.4335,317.42931 c -1.426,6.215 -11.201,25.001 -75.831,44.954 -54.532,16.864 -68.324,56.092 -71.633,78.864 0.024,2.001 0.126,3.119 0.126,3.119 0,0 0.906,-56.352 103.07,-75.122 38.612,-7.09 44.457,-34.816 44.268,-51.815 z"
   id="path42" />
<linearGradient
   id="SVGID_13_"
   gradientUnits="userSpaceOnUse"
   x1="-36.5122"
   y1="604.0468"
   x2="-13.5832"
   y2="582.5027"
   gradientTransform="matrix(7.8769 0 0 -7.8769 364.0319 4969.6978)">
	<stop
   offset="0"
   style="stop-color:#29D3DA"
   id="stop43" />
	<stop
   offset="0.519"
   style="stop-color:#0077FF"
   id="stop44" />
	<stop
   offset="0.999"
   style="stop-color:#064093"
   id="stop45" />
	<stop
   offset="1"
   style="stop-color:#084698"
   id="stop46" />
</linearGradient>
<path
   style="fill:#735b55;fill-opacity:1;stroke-width:1.00007;stroke-dasharray:none"
   d="m 251.9935,458.92231 c 0,0 7.806,-83.803 -84.85,-112.427 -92.656001,-28.633 -89.017001,-55.186 -89.017001,-55.186 0,0 -16.699,65.599 50.987001,78.045 121.801,22.386 122.88,89.568 122.88,89.568 z"
   id="path46" />
<linearGradient
   id="SVGID_14_"
   gradientUnits="userSpaceOnUse"
   x1="-9.9191"
   y1="577.0967"
   x2="-37.7411"
   y2="604.9818"
   gradientTransform="matrix(7.8769 0 0 -7.8769 364.0319 4969.6978)">
	<stop
   offset="0"
   style="stop-color:#29D3DA"
   id="stop47" />
	<stop
   offset="0.519"
   style="stop-color:#0077FF"
   id="stop48" />
	<stop
   offset="0.999"
   style="stop-color:#064093"
   id="stop49" />
	<stop
   offset="1"
   style="stop-color:#084698"
   id="stop50" />
</linearGradient>
<path
   style="fill:#735b55;fill-opacity:1;stroke-width:1.00007;stroke-dasharray:none"
   d="m 76.322499,307.55231 c 1.678,7.428 13.336,29.814 90.403001,53.618 65.04,20.11 81.487,66.875 85.425,94.035 -0.032,2.402 -0.158,3.726 -0.158,3.726 0,0 -1.087,-67.182 -122.888,-89.569 -46.048001,-8.468 -53.026001,-41.519 -52.782001,-61.81 z"
   id="path50" />
<linearGradient
   id="SVGID_15_"
   gradientUnits="userSpaceOnUse"
   x1="-31.4611"
   y1="598.4548"
   x2="-13.7211"
   y2="581.7878"
   gradientTransform="matrix(7.8769 0 0 -7.8769 364.0319 4969.6978)">
	<stop
   offset="0"
   style="stop-color:#29D3DA"
   id="stop51" />
	<stop
   offset="0.519"
   style="stop-color:#0077FF"
   id="stop52" />
	<stop
   offset="0.999"
   style="stop-color:#064093"
   id="stop53" />
	<stop
   offset="1"
   style="stop-color:#084698"
   id="stop54" />
</linearGradient>
<path
   style="fill:#735b55;fill-opacity:1;stroke-width:1.00007;stroke-dasharray:none"
   d="m 252.0325,464.55431 c 0,0 6.042,-64.827 -65.638,-86.985 -71.672,-22.142 -68.868,-42.677 -68.868,-42.677 0,0 -12.918,50.735 39.448,60.353 94.223,17.322 95.058,69.309 95.058,69.309 z"
   id="path54" />
<linearGradient
   id="SVGID_16_"
   gradientUnits="userSpaceOnUse"
   x1="-10.8883"
   y1="577.6055"
   x2="-32.4093"
   y2="599.1785"
   gradientTransform="matrix(7.8769 0 0 -7.8769 364.0319 4969.6978)">
	<stop
   offset="0"
   style="stop-color:#29D3DA"
   id="stop55" />
	<stop
   offset="0.519"
   style="stop-color:#0077FF"
   id="stop56" />
	<stop
   offset="0.999"
   style="stop-color:#064093"
   id="stop57" />
	<stop
   offset="1"
   style="stop-color:#084698"
   id="stop58" />
</linearGradient>
<path
   style="fill:#735b55;fill-opacity:1;stroke-width:1.00007;stroke-dasharray:none"
   d="m 116.1405,347.46431 c 1.308,5.742 10.327,23.048 69.939,41.464 50.31,15.557 63.023,51.736 66.08,72.736 -0.024,1.843 -0.126,2.891 -0.126,2.891 0,0 -0.835,-51.988 -95.059,-69.309 -35.62,-6.538 -41.031,-32.107 -40.834,-47.782 z"
   id="path58" />
<linearGradient
   id="SVGID_17_"
   gradientUnits="userSpaceOnUse"
   x1="-27.2511"
   y1="594.0187"
   x2="-13.8391"
   y2="581.4188"
   gradientTransform="matrix(7.8769 0 0 -7.8769 364.0319 4969.6978)">
	<stop
   offset="0"
   style="stop-color:#29D3DA"
   id="stop59" />
	<stop
   offset="0.519"
   style="stop-color:#0077FF"
   id="stop60" />
	<stop
   offset="0.999"
   style="stop-color:#064093"
   id="stop61" />
	<stop
   offset="1"
   style="stop-color:#084698"
   id="stop62" />
</linearGradient>
<path
   style="fill:#735b55;fill-opacity:1;stroke-width:1.00007;stroke-dasharray:none"
   d="m 252.0725,467.47731 c 0,0 4.553,-49.018 -49.632,-65.772 -54.193,-16.738 -52.059,-32.264 -52.059,-32.264 0,0 -9.775,38.353 29.814,45.631 71.239,13.099 71.877,52.405 71.877,52.405 z"
   id="path62" />
<linearGradient
   id="SVGID_18_"
   gradientUnits="userSpaceOnUse"
   x1="-11.6962"
   y1="578.2566"
   x2="-27.9692"
   y2="594.5646"
   gradientTransform="matrix(7.8769 0 0 -7.8769 364.0319 4969.6978)">
	<stop
   offset="0"
   style="stop-color:#29D3DA"
   id="stop63" />
	<stop
   offset="0.519"
   style="stop-color:#0077FF"
   id="stop64" />
	<stop
   offset="0.999"
   style="stop-color:#064093"
   id="stop65" />
	<stop
   offset="1"
   style="stop-color:#084698"
   id="stop66" />
</linearGradient>
<path
   style="fill:#735b55;fill-opacity:1;stroke-width:1.00007;stroke-dasharray:none"
   d="m 149.3175,378.95631 c 0.992,4.34 7.806,17.432 52.886,31.35 38.03,11.752 47.648,39.109 49.955,54.981 -0.016,1.402 -0.087,2.182 -0.087,2.182 0,0 -0.638,-39.306 -71.877,-52.397 -26.931,-4.931 -31.019,-24.269 -30.877,-36.116 z"
   id="path66" />
<linearGradient
   id="SVGID_19_"
   gradientUnits="userSpaceOnUse"
   x1="-46.1931"
   y1="616.7978"
   x2="-13.3091"
   y2="585.9048"
   gradientTransform="matrix(7.8769 0 0 -7.8769 364.0319 4969.6978)">
	<stop
   offset="0.012"
   style="stop-color:#E0B386"
   id="stop67" />
	<stop
   offset="0.519"
   style="stop-color:#DA498C"
   id="stop68" />
	<stop
   offset="1"
   style="stop-color:#961484"
   id="stop69" />
</linearGradient>
<path
   style="fill:#735b55;fill-opacity:1;stroke-width:1.00007;stroke-dasharray:none"
   d="m 251.9305,432.12531 c 0,0 11.177,-120.186 -121.667,-161.249 -132.8600018,-41.03 -127.6460018,-79.107 -127.6460018,-79.107 0,0 -23.9619992,94.058 73.0900008,111.892 174.663001,32.106 176.223001,128.464 176.223001,128.464 z"
   id="path69" />
<linearGradient
   id="SVGID_20_"
   gradientUnits="userSpaceOnUse"
   x1="-8.058"
   y1="578.1488"
   x2="-47.954"
   y2="618.1428"
   gradientTransform="matrix(7.8769 0 0 -7.8769 364.0319 4969.6978)">
	<stop
   offset="0.012"
   style="stop-color:#E0B386"
   id="stop70" />
	<stop
   offset="0.519"
   style="stop-color:#DA498C"
   id="stop71" />
	<stop
   offset="1"
   style="stop-color:#961484"
   id="stop72" />
</linearGradient>
<path
   style="fill:#735b55;fill-opacity:1;stroke-width:1.00007;stroke-dasharray:none"
   d="m 0.01849825,215.07731 c 2.42599995,10.634 19.15700075,42.74 129.64600175,76.879 93.247,28.814 116.831,95.878 122.486,134.814 -0.055,3.434 -0.213,5.356 -0.213,5.356 0,0 -1.568,-96.358 -176.230001,-128.465 -66.0240004,-12.123 -76.02800075,-59.527 -75.68900075,-88.584 z"
   id="path72" />
<linearGradient
   id="SVGID_21_"
   gradientUnits="userSpaceOnUse"
   x1="-38.9482"
   y1="608.7806"
   x2="-13.5142"
   y2="584.8837"
   gradientTransform="matrix(7.8769 0 0 -7.8769 364.0319 4969.6978)">
	<stop
   offset="0.012"
   style="stop-color:#E0B386"
   id="stop73" />
	<stop
   offset="0.519"
   style="stop-color:#DA498C"
   id="stop74" />
	<stop
   offset="1"
   style="stop-color:#961484"
   id="stop75" />
</linearGradient>
<path
   style="fill:#735b55;fill-opacity:1;stroke-width:1.00007;stroke-dasharray:none"
   d="m 251.9775,440.16731 c 0,0 8.665,-92.956 -94.113,-124.723 -102.778001,-31.736 -98.737001,-61.204 -98.737001,-61.204 0,0 -18.542,72.767 56.541001,86.567 135.104,24.821 136.309,99.36 136.309,99.36 z"
   id="path75" />
<linearGradient
   id="SVGID_22_"
   gradientUnits="userSpaceOnUse"
   x1="-9.4547"
   y1="578.8881"
   x2="-40.3117"
   y2="609.8201"
   gradientTransform="matrix(7.8769 0 0 -7.8769 364.0319 4969.6978)">
	<stop
   offset="0.012"
   style="stop-color:#E0B386"
   id="stop76" />
	<stop
   offset="0.519"
   style="stop-color:#DA498C"
   id="stop77" />
	<stop
   offset="1"
   style="stop-color:#961484"
   id="stop78" />
</linearGradient>
<path
   style="fill:#735b55;fill-opacity:1;stroke-width:1.00007;stroke-dasharray:none"
   d="m 57.110499,272.27931 c 1.875,8.231 14.816,33.059 100.289001,59.463 72.129,22.292 90.38,74.185 94.744,104.29 -0.032,2.647 -0.165,4.135 -0.165,4.135 0,0 -1.205,-74.539 -136.318,-99.352 -51.067001,-9.388 -58.810001,-46.048 -58.550001,-68.536 z"
   id="path78" />
<linearGradient
   id="SVGID_23_"
   gradientUnits="userSpaceOnUse"
   x1="-32.912"
   y1="602.42"
   x2="-13.683"
   y2="584.35"
   gradientTransform="matrix(7.8769 0 0 -7.8769 364.0319 4969.6978)">
	<stop
   offset="0.012"
   style="stop-color:#E0B386"
   id="stop79" />
	<stop
   offset="0.519"
   style="stop-color:#DA498C"
   id="stop80" />
	<stop
   offset="1"
   style="stop-color:#961484"
   id="stop81" />
</linearGradient>
<path
   style="fill:#735b55;fill-opacity:1;stroke-width:1.00007;stroke-dasharray:none"
   d="m 252.0245,444.36631 c 0,0 6.538,-70.278 -71.152,-94.295 -77.706,-24.017 -74.657,-46.277 -74.657,-46.277 0,0 -14.013001,55.012 42.748,65.449 102.155,18.771 103.061,75.123 103.061,75.123 z"
   id="path81" />
<linearGradient
   id="SVGID_24_"
   gradientUnits="userSpaceOnUse"
   x1="-10.6144"
   y1="579.8165"
   x2="-33.9434"
   y2="603.2084"
   gradientTransform="matrix(7.8769 0 0 -7.8769 364.0319 4969.6978)">
	<stop
   offset="0.012"
   style="stop-color:#E0B386"
   id="stop82" />
	<stop
   offset="0.519"
   style="stop-color:#DA498C"
   id="stop83" />
	<stop
   offset="1"
   style="stop-color:#961484"
   id="stop84" />
</linearGradient>
<path
   style="fill:#735b55;fill-opacity:1;stroke-width:1.00007;stroke-dasharray:none"
   d="m 104.6945,317.42931 c 1.426,6.215 11.201,25.001 75.823,44.954 54.54,16.864 68.332,56.092 71.641,78.864 -0.024,2.001 -0.134,3.119 -0.134,3.119 0,0 -0.906,-56.352 -103.062,-75.122 -38.612,-7.09 -44.457,-34.816 -44.268,-51.815 z"
   id="path84" />
<text
   xml:space="preserve"
   style="font-style:normal;font-variant:normal;font-weight:500;font-stretch:normal;font-size:181.486px;font-family:Atma;-inkscape-font-specification:'Atma, Medium';font-variant-ligatures:normal;font-variant-caps:normal;font-variant-numeric:normal;font-variant-east-asian:normal;text-align:start;writing-mode:lr-tb;direction:ltr;text-anchor:start;fill:#735b55;fill-opacity:1;stroke:#735b55;stroke-width:1.00007;stroke-dasharray:none"
   x="20.124889"
   y="180.52365"
   id="text84"><tspan
     sodipodi:role="line"
     id="tspan84"
     style="font-style:normal;font-variant:normal;font-weight:500;font-stretch:normal;font-size:181.486px;font-family:Atma;-inkscape-font-specification:'Atma, Medium';font-variant-ligatures:normal;font-variant-caps:normal;font-variant-numeric:normal;font-variant-east-asian:normal;stroke-width:1.00007"
     x="20.124889"
     y="180.52365">&lt;50cm</tspan></text></svg>
